{"asset": {"version": "2.0", "generator": "Blockbench 5.0.7 glTF exporter"}, "scenes": [{"nodes": [23], "name": "blockbench_export"}], "scene": 0, "nodes": [{"rotation": [0, 0.134850930273723, 0, 0.9908658973868822], "name": "cube", "mesh": 0}, {"name": "feet2", "children": [0]}, {"rotation": [0, -0.134850930273723, 0, 0.9908658973868822], "name": "cube", "mesh": 1}, {"translation": [0.28125, 0, 0], "name": "feet1", "children": [2]}, {"rotation": [0, 0.13052619222005157, 0, 0.9914448613738104], "name": "cube", "mesh": 2}, {"translation": [0.0031250000000000167, 0, 0.078125], "name": "tight2", "children": [4]}, {"rotation": [0, -0.13052619222005157, 0, 0.9914448613738104], "name": "tight", "mesh": 3}, {"translation": [0.34687500000000004, 0, 0.078125], "name": "tight1", "children": [6]}, {"rotation": [0.17364817766693033, 0, 0, 0.984807753012208], "name": "body", "mesh": 4}, {"translation": [0.203125, 0.0625, 0], "name": "body", "children": [8]}, {"rotation": [0.043619387365336, 0, 0, 0.9990482215818578], "name": "cube", "mesh": 5}, {"translation": [0.3125, 0, -0.28125], "name": "arm1", "children": [10]}, {"rotation": [0.043619387365336, 0, 0, 0.9990482215818578], "name": "cube", "mesh": 6}, {"translation": [0.03125, 0, -0.28125], "name": "arm2", "children": [12]}, {"name": "head", "mesh": 7}, {"name": "nose", "mesh": 8}, {"translation": [0.140625, -0.125, -0.0625], "name": "head", "children": [14, 15]}, {"rotation": [0.21643961393810288, 0, 0, 0.9762960071199334], "name": "cube", "mesh": 9}, {"translation": [0.140625, 0.1875, 0.03125], "name": "tail", "children": [17]}, {"rotation": [0, 0.3007057995042731, 0, 0.9537169507482269], "name": "ear1", "mesh": 10}, {"translation": [0.203125, 0.625, -0.375], "name": "ear1", "children": [19]}, {"rotation": [0, -0.3007057995042731, 0, 0.9537169507482269], "name": "ear2", "mesh": 11}, {"translation": [0.078125, 0.625, -0.375], "name": "ear2", "children": [21]}, {"translation": [-0.203125, 0, 0.25], "name": "bnuy", "children": [1, 3, 5, 7, 9, 11, 13, 16, 18, 20, 22]}], "bufferViews": [{"buffer": 0, "byteOffset": 0, "byteLength": 288, "target": 34962, "byteStride": 12}, {"buffer": 0, "byteOffset": 288, "byteLength": 288, "target": 34962, "byteStride": 12}, {"buffer": 0, "byteOffset": 576, "byteLength": 192, "target": 34962, "byteStride": 8}, {"buffer": 0, "byteOffset": 768, "byteLength": 72, "target": 34963}, {"buffer": 0, "byteOffset": 840, "byteLength": 288, "target": 34962, "byteStride": 12}, {"buffer": 0, "byteOffset": 1128, "byteLength": 288, "target": 34962, "byteStride": 12}, {"buffer": 0, "byteOffset": 1416, "byteLength": 192, "target": 34962, "byteStride": 8}, {"buffer": 0, "byteOffset": 1608, "byteLength": 72, "target": 34963}, {"buffer": 0, "byteOffset": 1680, "byteLength": 288, "target": 34962, "byteStride": 12}, {"buffer": 0, "byteOffset": 1968, "byteLength": 288, "target": 34962, "byteStride": 12}, {"buffer": 0, "byteOffset": 2256, "byteLength": 192, "target": 34962, "byteStride": 8}, {"buffer": 0, "byteOffset": 2448, "byteLength": 72, "target": 34963}, {"buffer": 0, "byteOffset": 2520, "byteLength": 288, "target": 34962, "byteStride": 12}, {"buffer": 0, "byteOffset": 2808, "byteLength": 288, "target": 34962, "byteStride": 12}, {"buffer": 0, "byteOffset": 3096, "byteLength": 192, "target": 34962, "byteStride": 8}, {"buffer": 0, "byteOffset": 3288, "byteLength": 72, "target": 34963}, {"buffer": 0, "byteOffset": 3360, "byteLength": 288, "target": 34962, "byteStride": 12}, {"buffer": 0, "byteOffset": 3648, "byteLength": 288, "target": 34962, "byteStride": 12}, {"buffer": 0, "byteOffset": 3936, "byteLength": 192, "target": 34962, "byteStride": 8}, {"buffer": 0, "byteOffset": 4128, "byteLength": 72, "target": 34963}, {"buffer": 0, "byteOffset": 4200, "byteLength": 288, "target": 34962, "byteStride": 12}, {"buffer": 0, "byteOffset": 4488, "byteLength": 288, "target": 34962, "byteStride": 12}, {"buffer": 0, "byteOffset": 4776, "byteLength": 192, "target": 34962, "byteStride": 8}, {"buffer": 0, "byteOffset": 4968, "byteLength": 72, "target": 34963}, {"buffer": 0, "byteOffset": 5040, "byteLength": 288, "target": 34962, "byteStride": 12}, {"buffer": 0, "byteOffset": 5328, "byteLength": 288, "target": 34962, "byteStride": 12}, {"buffer": 0, "byteOffset": 5616, "byteLength": 192, "target": 34962, "byteStride": 8}, {"buffer": 0, "byteOffset": 5808, "byteLength": 72, "target": 34963}, {"buffer": 0, "byteOffset": 5880, "byteLength": 288, "target": 34962, "byteStride": 12}, {"buffer": 0, "byteOffset": 6168, "byteLength": 288, "target": 34962, "byteStride": 12}, {"buffer": 0, "byteOffset": 6456, "byteLength": 192, "target": 34962, "byteStride": 8}, {"buffer": 0, "byteOffset": 6648, "byteLength": 72, "target": 34963}, {"buffer": 0, "byteOffset": 6720, "byteLength": 288, "target": 34962, "byteStride": 12}, {"buffer": 0, "byteOffset": 7008, "byteLength": 288, "target": 34962, "byteStride": 12}, {"buffer": 0, "byteOffset": 7296, "byteLength": 192, "target": 34962, "byteStride": 8}, {"buffer": 0, "byteOffset": 7488, "byteLength": 72, "target": 34963}, {"buffer": 0, "byteOffset": 7560, "byteLength": 288, "target": 34962, "byteStride": 12}, {"buffer": 0, "byteOffset": 7848, "byteLength": 288, "target": 34962, "byteStride": 12}, {"buffer": 0, "byteOffset": 8136, "byteLength": 192, "target": 34962, "byteStride": 8}, {"buffer": 0, "byteOffset": 8328, "byteLength": 72, "target": 34963}, {"buffer": 0, "byteOffset": 8400, "byteLength": 288, "target": 34962, "byteStride": 12}, {"buffer": 0, "byteOffset": 8688, "byteLength": 288, "target": 34962, "byteStride": 12}, {"buffer": 0, "byteOffset": 8976, "byteLength": 192, "target": 34962, "byteStride": 8}, {"buffer": 0, "byteOffset": 9168, "byteLength": 72, "target": 34963}, {"buffer": 0, "byteOffset": 9240, "byteLength": 288, "target": 34962, "byteStride": 12}, {"buffer": 0, "byteOffset": 9528, "byteLength": 288, "target": 34962, "byteStride": 12}, {"buffer": 0, "byteOffset": 9816, "byteLength": 192, "target": 34962, "byteStride": 8}, {"buffer": 0, "byteOffset": 10008, "byteLength": 72, "target": 34963}], "buffers": [{"byteLength": 10080, "uri": "data:application/octet-stream;base64,"}], "accessors": [{"bufferView": 0, "componentType": 5126, "count": 24, "max": [0.0625, 0.0625, 0.0625], "min": [-0.0625, 0, -0.25], "type": "VEC3"}, {"bufferView": 1, "componentType": 5126, "count": 24, "max": [1, 1, 1], "min": [-1, -1, -1], "type": "VEC3"}, {"bufferView": 2, "componentType": 5126, "count": 24, "max": [0.531005859375, 0.406005859375], "min": [0.312744140625, 0.312744140625], "type": "VEC2"}, {"bufferView": 3, "componentType": 5123, "count": 36, "max": [23], "min": [0], "type": "SCALAR"}, {"bufferView": 4, "componentType": 5126, "count": 24, "max": [0.0625, 0.0625, 0.0625], "min": [-0.0625, 0, -0.25], "type": "VEC3"}, {"bufferView": 5, "componentType": 5126, "count": 24, "max": [1, 1, 1], "min": [-1, -1, -1], "type": "VEC3"}, {"bufferView": 6, "componentType": 5126, "count": 24, "max": [0.218505859375, 0.452880859375], "min": [0.000244140625, 0.359619140625], "type": "VEC2"}, {"bufferView": 7, "componentType": 5123, "count": 36, "max": [23], "min": [0], "type": "SCALAR"}, {"bufferView": 8, "componentType": 5126, "count": 24, "max": [2.7755575615628914e-17, 0.25, 0.0625], "min": [-0.0625, 0.0625, -0.1875], "type": "VEC3"}, {"bufferView": 9, "componentType": 5126, "count": 24, "max": [1, 1, 1], "min": [-1, -1, -1], "type": "VEC3"}, {"bufferView": 10, "componentType": 5126, "count": 24, "max": [0.374755859375, 0.515380859375], "min": [0.218994140625, 0.406494140625], "type": "VEC2"}, {"bufferView": 11, "componentType": 5123, "count": 36, "max": [23], "min": [0], "type": "SCALAR"}, {"bufferView": 12, "componentType": 5126, "count": 24, "max": [0, 0.25, 0.0625], "min": [-0.0625, 0.0625, -0.1875], "type": "VEC3"}, {"bufferView": 13, "componentType": 5126, "count": 24, "max": [1, 1, 1], "min": [-1, -1, -1], "type": "VEC3"}, {"bufferView": 14, "componentType": 5126, "count": 24, "max": [0.531005859375, 0.515380859375], "min": [0.375244140625, 0.406494140625], "type": "VEC2"}, {"bufferView": 15, "componentType": 5123, "count": 36, "max": [23], "min": [0], "type": "SCALAR"}, {"bufferView": 16, "componentType": 5126, "count": 24, "max": [0.125, 0.3125, 0.0625], "min": [-0.25, 0, -0.4375], "type": "VEC3"}, {"bufferView": 17, "componentType": 5126, "count": 24, "max": [1, 1, 1], "min": [-1, -1, -1], "type": "VEC3"}, {"bufferView": 18, "componentType": 5126, "count": 24, "max": [0.437255859375, 0.202880859375], "min": [0.000244140625, 0.000244140625], "type": "VEC2"}, {"bufferView": 19, "componentType": 5123, "count": 36, "max": [23], "min": [0], "type": "SCALAR"}, {"bufferView": 20, "componentType": 5126, "count": 24, "max": [0, 0.25, 0], "min": [-0.0625, 0, -0.0625], "type": "VEC3"}, {"bufferView": 21, "componentType": 5126, "count": 24, "max": [1, 1, 1], "min": [-1, -1, -1], "type": "VEC3"}, {"bufferView": 22, "componentType": 5126, "count": 24, "max": [0.187255859375, 0.531005859375], "min": [0.125244140625, 0.453369140625], "type": "VEC2"}, {"bufferView": 23, "componentType": 5123, "count": 36, "max": [23], "min": [0], "type": "SCALAR"}, {"bufferView": 24, "componentType": 5126, "count": 24, "max": [0, 0.25, 0], "min": [-0.0625, 0, -0.0625], "type": "VEC3"}, {"bufferView": 25, "componentType": 5126, "count": 24, "max": [1, 1, 1], "min": [-1, -1, -1], "type": "VEC3"}, {"bufferView": 26, "componentType": 5126, "count": 24, "max": [0.062255859375, 0.577880859375], "min": [0.000244140625, 0.500244140625], "type": "VEC2"}, {"bufferView": 27, "componentType": 5123, "count": 36, "max": [23], "min": [0], "type": "SCALAR"}, {"bufferView": 28, "componentType": 5126, "count": 24, "max": [0.15625, 0.78125, -0.1875], "min": [-0.15625, 0.46875, -0.5], "type": "VEC3"}, {"bufferView": 29, "componentType": 5126, "count": 24, "max": [1, 1, 1], "min": [-1, -1, -1], "type": "VEC3"}, {"bufferView": 30, "componentType": 5126, "count": 24, "max": [0.312255859375, 0.359130859375], "min": [0.000244140625, 0.203369140625], "type": "VEC2"}, {"bufferView": 31, "componentType": 5123, "count": 36, "max": [23], "min": [0], "type": "SCALAR"}, {"bufferView": 32, "componentType": 5126, "count": 24, "max": [0.09375, 0.59375, -0.5], "min": [-0.09375, 0.46875, -0.5625], "type": "VEC3"}, {"bufferView": 33, "componentType": 5126, "count": 24, "max": [1, 1, 1], "min": [-1, -1, -1], "type": "VEC3"}, {"bufferView": 34, "componentType": 5126, "count": 24, "max": [0.124755859375, 0.499755859375], "min": [0.000244140625, 0.453369140625], "type": "VEC2"}, {"bufferView": 35, "componentType": 5123, "count": 36, "max": [23], "min": [0], "type": "SCALAR"}, {"bufferView": 36, "componentType": 5126, "count": 24, "max": [0.125, 0.25, 0.1875], "min": [-0.125, 0, 0], "type": "VEC3"}, {"bufferView": 37, "componentType": 5126, "count": 24, "max": [1, 1, 1], "min": [-1, -1, -1], "type": "VEC3"}, {"bufferView": 38, "componentType": 5126, "count": 24, "max": [0.531005859375, 0.312255859375], "min": [0.312744140625, 0.203369140625], "type": "VEC2"}, {"bufferView": 39, "componentType": 5123, "count": 36, "max": [23], "min": [0], "type": "SCALAR"}, {"bufferView": 40, "componentType": 5126, "count": 24, "max": [0.0625, 0.3125, 0.0625], "min": [-0.0625, 0, 0], "type": "VEC3"}, {"bufferView": 41, "componentType": 5126, "count": 24, "max": [1, 1, 1], "min": [-1, -1, -1], "type": "VEC3"}, {"bufferView": 42, "componentType": 5126, "count": 24, "max": [0.531005859375, 0.093505859375], "min": [0.437744140625, 0.000244140625], "type": "VEC2"}, {"bufferView": 43, "componentType": 5123, "count": 36, "max": [23], "min": [0], "type": "SCALAR"}, {"bufferView": 44, "componentType": 5126, "count": 24, "max": [0.0625, 0.3125, 0.0625], "min": [-0.0625, 0, 0], "type": "VEC3"}, {"bufferView": 45, "componentType": 5126, "count": 24, "max": [1, 1, 1], "min": [-1, -1, -1], "type": "VEC3"}, {"bufferView": 46, "componentType": 5126, "count": 24, "max": [0.531005859375, 0.187255859375], "min": [0.437744140625, 0.093994140625], "type": "VEC2"}, {"bufferView": 47, "componentType": 5123, "count": 36, "max": [23], "min": [0], "type": "SCALAR"}], "materials": [{"pbrMetallicRoughness": {"metallicFactor": 0, "roughnessFactor": 1, "baseColorTexture": {"index": 0}}, "alphaMode": "MASK", "alphaCutoff": 0.05, "doubleSided": true}], "textures": [{"sampler": 0, "source": 0, "name": "rabbit_newmodel"}], "samplers": [{"magFilter": 9728, "minFilter": 9728, "wrapS": 33071, "wrapT": 33071}], "images": [{"mimeType": "image/png", "uri": "gltf_embedded_1.png"}], "meshes": [{"primitives": [{"mode": 4, "attributes": {"POSITION": 0, "NORMAL": 1, "TEXCOORD_0": 2}, "indices": 3, "material": 0}]}, {"primitives": [{"mode": 4, "attributes": {"POSITION": 4, "NORMAL": 5, "TEXCOORD_0": 6}, "indices": 7, "material": 0}]}, {"primitives": [{"mode": 4, "attributes": {"POSITION": 8, "NORMAL": 9, "TEXCOORD_0": 10}, "indices": 11, "material": 0}]}, {"primitives": [{"mode": 4, "attributes": {"POSITION": 12, "NORMAL": 13, "TEXCOORD_0": 14}, "indices": 15, "material": 0}]}, {"primitives": [{"mode": 4, "attributes": {"POSITION": 16, "NORMAL": 17, "TEXCOORD_0": 18}, "indices": 19, "material": 0}]}, {"primitives": [{"mode": 4, "attributes": {"POSITION": 20, "NORMAL": 21, "TEXCOORD_0": 22}, "indices": 23, "material": 0}]}, {"primitives": [{"mode": 4, "attributes": {"POSITION": 24, "NORMAL": 25, "TEXCOORD_0": 26}, "indices": 27, "material": 0}]}, {"primitives": [{"mode": 4, "attributes": {"POSITION": 28, "NORMAL": 29, "TEXCOORD_0": 30}, "indices": 31, "material": 0}]}, {"primitives": [{"mode": 4, "attributes": {"POSITION": 32, "NORMAL": 33, "TEXCOORD_0": 34}, "indices": 35, "material": 0}]}, {"primitives": [{"mode": 4, "attributes": {"POSITION": 36, "NORMAL": 37, "TEXCOORD_0": 38}, "indices": 39, "material": 0}]}, {"primitives": [{"mode": 4, "attributes": {"POSITION": 40, "NORMAL": 41, "TEXCOORD_0": 42}, "indices": 43, "material": 0}]}, {"primitives": [{"mode": 4, "attributes": {"POSITION": 44, "NORMAL": 45, "TEXCOORD_0": 46}, "indices": 47, "material": 0}]}]}